<mxfile host="app.diagrams.net" modified="2024-04-14T22:35:47.831Z" agent="Mozilla/5.0 (X11; Linux x86_64; rv:124.0) Gecko/20100101 Firefox/124.0" etag="mYJ23qBr_t63ShdupJGf" version="24.2.5" type="device">
  <diagram name="Page-1" id="hcJHSDHoGeX2lE1SBRMY">
    <mxGraphModel dx="2924" dy="1112" grid="1" gridSize="10" guides="1" tooltips="1" connect="1" arrows="1" fold="1" page="1" pageScale="1" pageWidth="850" pageHeight="1100" math="0" shadow="0">
      <root>
        <mxCell id="0" />
        <mxCell id="1" parent="0" />
        <mxCell id="p5D0_sLYN4Q-_RJ_7Vx2-42" value="" style="rounded=1;whiteSpace=wrap;html=1;fillColor=#fff2cc;strokeColor=#d6b656;" parent="1" vertex="1">
          <mxGeometry x="-140" y="130" width="1280" height="600" as="geometry" />
        </mxCell>
        <mxCell id="p5D0_sLYN4Q-_RJ_7Vx2-32" value="" style="rounded=1;whiteSpace=wrap;html=1;fillColor=#e1d5e7;strokeColor=#9673a6;" parent="1" vertex="1">
          <mxGeometry x="700" y="325" width="210" height="270" as="geometry" />
        </mxCell>
        <mxCell id="p5D0_sLYN4Q-_RJ_7Vx2-19" value="" style="rounded=1;whiteSpace=wrap;html=1;fillColor=#f8cecc;strokeColor=#b85450;" parent="1" vertex="1">
          <mxGeometry x="470" y="325" width="210" height="270" as="geometry" />
        </mxCell>
        <mxCell id="p5D0_sLYN4Q-_RJ_7Vx2-15" value="" style="rounded=1;whiteSpace=wrap;html=1;fillColor=#dae8fc;strokeColor=#6c8ebf;" parent="1" vertex="1">
          <mxGeometry x="245" y="325" width="210" height="270" as="geometry" />
        </mxCell>
        <mxCell id="p5D0_sLYN4Q-_RJ_7Vx2-14" value="" style="rounded=1;whiteSpace=wrap;html=1;fillColor=#d5e8d4;strokeColor=#82b366;" parent="1" vertex="1">
          <mxGeometry x="20" y="325" width="210" height="270" as="geometry" />
        </mxCell>
        <mxCell id="p5D0_sLYN4Q-_RJ_7Vx2-7" style="edgeStyle=orthogonalEdgeStyle;rounded=0;orthogonalLoop=1;jettySize=auto;html=1;exitX=1;exitY=0.5;exitDx=0;exitDy=0;entryX=0;entryY=0.5;entryDx=0;entryDy=0;" parent="1" source="p5D0_sLYN4Q-_RJ_7Vx2-1" target="p5D0_sLYN4Q-_RJ_7Vx2-2" edge="1">
          <mxGeometry relative="1" as="geometry" />
        </mxCell>
        <mxCell id="p5D0_sLYN4Q-_RJ_7Vx2-10" style="edgeStyle=orthogonalEdgeStyle;rounded=0;orthogonalLoop=1;jettySize=auto;html=1;exitX=1;exitY=0.5;exitDx=0;exitDy=0;entryX=0;entryY=0.5;entryDx=0;entryDy=0;" parent="1" source="p5D0_sLYN4Q-_RJ_7Vx2-1" target="p5D0_sLYN4Q-_RJ_7Vx2-9" edge="1">
          <mxGeometry relative="1" as="geometry" />
        </mxCell>
        <mxCell id="p5D0_sLYN4Q-_RJ_7Vx2-1" value="whisper" style="rounded=1;whiteSpace=wrap;html=1;" parent="1" vertex="1">
          <mxGeometry x="80" y="430" width="120" height="60" as="geometry" />
        </mxCell>
        <mxCell id="p5D0_sLYN4Q-_RJ_7Vx2-17" style="edgeStyle=orthogonalEdgeStyle;rounded=0;orthogonalLoop=1;jettySize=auto;html=1;exitX=1;exitY=0.5;exitDx=0;exitDy=0;entryX=0;entryY=0.5;entryDx=0;entryDy=0;" parent="1" source="p5D0_sLYN4Q-_RJ_7Vx2-2" target="p5D0_sLYN4Q-_RJ_7Vx2-16" edge="1">
          <mxGeometry relative="1" as="geometry" />
        </mxCell>
        <mxCell id="p5D0_sLYN4Q-_RJ_7Vx2-2" value="s3/minio" style="rounded=1;whiteSpace=wrap;html=1;" parent="1" vertex="1">
          <mxGeometry x="320" y="366" width="120" height="60" as="geometry" />
        </mxCell>
        <mxCell id="p5D0_sLYN4Q-_RJ_7Vx2-4" value="" style="shape=flexArrow;endArrow=classic;html=1;rounded=0;entryX=0;entryY=0.5;entryDx=0;entryDy=0;fillColor=#f5f5f5;strokeColor=#666666;" parent="1" target="p5D0_sLYN4Q-_RJ_7Vx2-1" edge="1">
          <mxGeometry width="50" height="50" relative="1" as="geometry">
            <mxPoint x="-10" y="460" as="sourcePoint" />
            <mxPoint x="450" y="550" as="targetPoint" />
          </mxGeometry>
        </mxCell>
        <mxCell id="p5D0_sLYN4Q-_RJ_7Vx2-29" style="edgeStyle=orthogonalEdgeStyle;rounded=0;orthogonalLoop=1;jettySize=auto;html=1;entryX=0;entryY=0.75;entryDx=0;entryDy=0;" parent="1" target="p5D0_sLYN4Q-_RJ_7Vx2-9" edge="1">
          <mxGeometry relative="1" as="geometry">
            <mxPoint y="525" as="sourcePoint" />
            <Array as="points">
              <mxPoint x="-40" y="525" />
            </Array>
          </mxGeometry>
        </mxCell>
        <mxCell id="mtzsEB-38qO-FX3NmCci-1" style="edgeStyle=orthogonalEdgeStyle;rounded=0;orthogonalLoop=1;jettySize=auto;html=1;exitX=0.514;exitY=1.067;exitDx=0;exitDy=0;entryX=0.5;entryY=1;entryDx=0;entryDy=0;exitPerimeter=0;" edge="1" parent="1" source="p5D0_sLYN4Q-_RJ_7Vx2-6" target="p5D0_sLYN4Q-_RJ_7Vx2-34">
          <mxGeometry relative="1" as="geometry">
            <Array as="points">
              <mxPoint x="-66" y="700" />
              <mxPoint x="830" y="700" />
            </Array>
          </mxGeometry>
        </mxCell>
        <mxCell id="p5D0_sLYN4Q-_RJ_7Vx2-5" value="" style="shape=image;html=1;verticalAlign=top;verticalLabelPosition=bottom;labelBackgroundColor=#ffffff;imageAspect=0;aspect=fixed;image=https://cdn4.iconfinder.com/data/icons/miu-black-social-2/60/podcast-128.png" parent="1" vertex="1">
          <mxGeometry x="-100" y="426" width="68" height="68" as="geometry" />
        </mxCell>
        <mxCell id="p5D0_sLYN4Q-_RJ_7Vx2-6" value="podcast" style="text;html=1;align=center;verticalAlign=middle;resizable=0;points=[];autosize=1;strokeColor=none;fillColor=none;" parent="1" vertex="1">
          <mxGeometry x="-102" y="490" width="70" height="30" as="geometry" />
        </mxCell>
        <mxCell id="p5D0_sLYN4Q-_RJ_7Vx2-8" value=".srt file" style="text;html=1;align=center;verticalAlign=middle;resizable=0;points=[];autosize=1;strokeColor=none;fillColor=none;" parent="1" vertex="1">
          <mxGeometry x="260" y="366" width="60" height="30" as="geometry" />
        </mxCell>
        <mxCell id="p5D0_sLYN4Q-_RJ_7Vx2-18" style="edgeStyle=orthogonalEdgeStyle;rounded=0;orthogonalLoop=1;jettySize=auto;html=1;exitX=1;exitY=0.5;exitDx=0;exitDy=0;entryX=0;entryY=0.5;entryDx=0;entryDy=0;" parent="1" source="p5D0_sLYN4Q-_RJ_7Vx2-9" target="p5D0_sLYN4Q-_RJ_7Vx2-16" edge="1">
          <mxGeometry relative="1" as="geometry" />
        </mxCell>
        <mxCell id="p5D0_sLYN4Q-_RJ_7Vx2-9" value="postgres" style="rounded=1;whiteSpace=wrap;html=1;" parent="1" vertex="1">
          <mxGeometry x="320" y="480" width="120" height="60" as="geometry" />
        </mxCell>
        <mxCell id="p5D0_sLYN4Q-_RJ_7Vx2-11" value="index" style="text;html=1;align=center;verticalAlign=middle;resizable=0;points=[];autosize=1;strokeColor=none;fillColor=none;" parent="1" vertex="1">
          <mxGeometry x="260" y="480" width="60" height="30" as="geometry" />
        </mxCell>
        <mxCell id="p5D0_sLYN4Q-_RJ_7Vx2-12" value="&lt;h1 style=&quot;margin-top: 0px;&quot;&gt;Store&lt;br&gt;&lt;/h1&gt;&lt;p&gt;Save the transcription with timestamps, so we never have to transcribe the podcast episode again&lt;br&gt;&lt;/p&gt;" style="text;html=1;whiteSpace=wrap;overflow=hidden;rounded=0;" parent="1" vertex="1">
          <mxGeometry x="260" y="170" width="180" height="120" as="geometry" />
        </mxCell>
        <mxCell id="p5D0_sLYN4Q-_RJ_7Vx2-13" value="&lt;h1 style=&quot;margin-top: 0px;&quot;&gt;Transcriber&lt;br&gt;&lt;/h1&gt;&lt;p&gt;Get transcriptions for the episode, with diarization (no need for speaker diarization) and export it in srt format.&lt;br&gt;&lt;/p&gt;" style="text;html=1;whiteSpace=wrap;overflow=hidden;rounded=0;" parent="1" vertex="1">
          <mxGeometry x="40" y="170" width="180" height="120" as="geometry" />
        </mxCell>
        <mxCell id="p5D0_sLYN4Q-_RJ_7Vx2-27" style="edgeStyle=orthogonalEdgeStyle;rounded=0;orthogonalLoop=1;jettySize=auto;html=1;exitX=0.25;exitY=1;exitDx=0;exitDy=0;entryX=0.25;entryY=0;entryDx=0;entryDy=0;" parent="1" source="p5D0_sLYN4Q-_RJ_7Vx2-16" target="p5D0_sLYN4Q-_RJ_7Vx2-21" edge="1">
          <mxGeometry relative="1" as="geometry" />
        </mxCell>
        <mxCell id="p5D0_sLYN4Q-_RJ_7Vx2-36" style="edgeStyle=orthogonalEdgeStyle;rounded=0;orthogonalLoop=1;jettySize=auto;html=1;exitX=1;exitY=0.5;exitDx=0;exitDy=0;entryX=0;entryY=0.5;entryDx=0;entryDy=0;" parent="1" source="p5D0_sLYN4Q-_RJ_7Vx2-16" target="p5D0_sLYN4Q-_RJ_7Vx2-34" edge="1">
          <mxGeometry relative="1" as="geometry">
            <Array as="points">
              <mxPoint x="690" y="396" />
              <mxPoint x="690" y="460" />
            </Array>
          </mxGeometry>
        </mxCell>
        <mxCell id="p5D0_sLYN4Q-_RJ_7Vx2-16" value="LLM" style="rounded=1;whiteSpace=wrap;html=1;" parent="1" vertex="1">
          <mxGeometry x="540" y="366" width="120" height="60" as="geometry" />
        </mxCell>
        <mxCell id="p5D0_sLYN4Q-_RJ_7Vx2-20" value=".srt file" style="text;html=1;align=center;verticalAlign=middle;resizable=0;points=[];autosize=1;strokeColor=none;fillColor=none;" parent="1" vertex="1">
          <mxGeometry x="480" y="366" width="60" height="30" as="geometry" />
        </mxCell>
        <mxCell id="p5D0_sLYN4Q-_RJ_7Vx2-28" style="edgeStyle=orthogonalEdgeStyle;rounded=0;orthogonalLoop=1;jettySize=auto;html=1;exitX=0.75;exitY=0;exitDx=0;exitDy=0;entryX=0.75;entryY=1;entryDx=0;entryDy=0;" parent="1" source="p5D0_sLYN4Q-_RJ_7Vx2-21" target="p5D0_sLYN4Q-_RJ_7Vx2-16" edge="1">
          <mxGeometry relative="1" as="geometry" />
        </mxCell>
        <mxCell id="p5D0_sLYN4Q-_RJ_7Vx2-21" value="wanted duration business logic" style="rounded=1;whiteSpace=wrap;html=1;" parent="1" vertex="1">
          <mxGeometry x="540" y="490" width="120" height="60" as="geometry" />
        </mxCell>
        <mxCell id="p5D0_sLYN4Q-_RJ_7Vx2-22" value="" style="shape=flexArrow;endArrow=classic;html=1;rounded=0;entryX=0.5;entryY=1;entryDx=0;entryDy=0;fillColor=#f5f5f5;strokeColor=#666666;" parent="1" target="p5D0_sLYN4Q-_RJ_7Vx2-21" edge="1">
          <mxGeometry width="50" height="50" relative="1" as="geometry">
            <mxPoint x="600" y="610" as="sourcePoint" />
            <mxPoint x="450" y="550" as="targetPoint" />
          </mxGeometry>
        </mxCell>
        <mxCell id="p5D0_sLYN4Q-_RJ_7Vx2-23" value="" style="sketch=0;pointerEvents=1;shadow=0;dashed=0;html=1;strokeColor=none;fillColor=#505050;labelPosition=center;verticalLabelPosition=bottom;verticalAlign=top;outlineConnect=0;align=center;shape=mxgraph.office.concepts.clock;" parent="1" vertex="1">
          <mxGeometry x="582.5" y="620" width="35" height="35" as="geometry" />
        </mxCell>
        <mxCell id="p5D0_sLYN4Q-_RJ_7Vx2-26" value="&lt;div&gt;wanted&lt;/div&gt;duration" style="text;html=1;align=center;verticalAlign=middle;resizable=0;points=[];autosize=1;strokeColor=none;fillColor=none;" parent="1" vertex="1">
          <mxGeometry x="565" y="655" width="70" height="40" as="geometry" />
        </mxCell>
        <mxCell id="p5D0_sLYN4Q-_RJ_7Vx2-30" value="checksum" style="text;html=1;align=center;verticalAlign=middle;whiteSpace=wrap;rounded=0;" parent="1" vertex="1">
          <mxGeometry x="260" y="520" width="60" height="30" as="geometry" />
        </mxCell>
        <mxCell id="p5D0_sLYN4Q-_RJ_7Vx2-33" value="&lt;h1 style=&quot;margin-top: 0px;&quot;&gt;Trimmer&lt;br&gt;&lt;/h1&gt;&lt;p&gt;Let the LLM drop as many lines in the .srt file as it wants.&lt;/p&gt;&lt;p&gt;Do some business logic to check the duration is correct with some margin.&lt;br&gt;&lt;/p&gt;" style="text;html=1;whiteSpace=wrap;overflow=hidden;rounded=0;" parent="1" vertex="1">
          <mxGeometry x="490" y="170" width="180" height="120" as="geometry" />
        </mxCell>
        <mxCell id="p5D0_sLYN4Q-_RJ_7Vx2-34" value="ffmpeg" style="rounded=1;whiteSpace=wrap;html=1;" parent="1" vertex="1">
          <mxGeometry x="770" y="430" width="120" height="60" as="geometry" />
        </mxCell>
        <mxCell id="p5D0_sLYN4Q-_RJ_7Vx2-35" value="&lt;h1 style=&quot;margin-top: 0px;&quot;&gt;Chopper&lt;br&gt;&lt;/h1&gt;&lt;div&gt;Cut the pieces using the timestamps from the result .srt file using ffmpeg.&lt;/div&gt;&lt;div&gt;&lt;br&gt;&lt;/div&gt;&lt;div&gt;&amp;gt; Video would be easy to include in the future&lt;br&gt;&lt;/div&gt;" style="text;html=1;whiteSpace=wrap;overflow=hidden;rounded=0;" parent="1" vertex="1">
          <mxGeometry x="720" y="170" width="180" height="140" as="geometry" />
        </mxCell>
        <mxCell id="p5D0_sLYN4Q-_RJ_7Vx2-37" value="&lt;div&gt;modified&lt;/div&gt;&lt;div&gt;.srt&lt;br&gt;&lt;/div&gt;" style="text;html=1;align=center;verticalAlign=middle;resizable=0;points=[];autosize=1;strokeColor=none;fillColor=none;" parent="1" vertex="1">
          <mxGeometry x="700" y="420" width="70" height="40" as="geometry" />
        </mxCell>
        <mxCell id="p5D0_sLYN4Q-_RJ_7Vx2-38" value="" style="shape=flexArrow;endArrow=classic;html=1;rounded=0;exitX=1;exitY=0.5;exitDx=0;exitDy=0;fillColor=#f5f5f5;strokeColor=#666666;" parent="1" source="p5D0_sLYN4Q-_RJ_7Vx2-34" edge="1">
          <mxGeometry width="50" height="50" relative="1" as="geometry">
            <mxPoint x="420" y="500" as="sourcePoint" />
            <mxPoint x="990" y="460" as="targetPoint" />
          </mxGeometry>
        </mxCell>
        <mxCell id="p5D0_sLYN4Q-_RJ_7Vx2-39" value="" style="shape=image;html=1;verticalAlign=top;verticalLabelPosition=bottom;labelBackgroundColor=#ffffff;imageAspect=0;aspect=fixed;image=https://cdn4.iconfinder.com/data/icons/miu-black-social-2/60/podcast-128.png" parent="1" vertex="1">
          <mxGeometry x="1000" y="430" width="68" height="68" as="geometry" />
        </mxCell>
        <mxCell id="p5D0_sLYN4Q-_RJ_7Vx2-40" value="" style="sketch=0;pointerEvents=1;shadow=0;dashed=0;html=1;strokeColor=none;fillColor=#505050;labelPosition=center;verticalLabelPosition=bottom;verticalAlign=top;outlineConnect=0;align=center;shape=mxgraph.office.concepts.clock;" parent="1" vertex="1">
          <mxGeometry x="1060" y="480" width="35" height="35" as="geometry" />
        </mxCell>
        <mxCell id="p5D0_sLYN4Q-_RJ_7Vx2-41" value="&lt;div&gt;trimmed&lt;/div&gt;&lt;div&gt;podcast&lt;br&gt;&lt;/div&gt;" style="text;html=1;align=center;verticalAlign=middle;resizable=0;points=[];autosize=1;strokeColor=none;fillColor=none;" parent="1" vertex="1">
          <mxGeometry x="999" y="510" width="70" height="40" as="geometry" />
        </mxCell>
        <mxCell id="mtzsEB-38qO-FX3NmCci-2" value="audio" style="text;html=1;align=center;verticalAlign=middle;resizable=0;points=[];autosize=1;strokeColor=none;fillColor=none;" vertex="1" parent="1">
          <mxGeometry x="830" y="494" width="60" height="30" as="geometry" />
        </mxCell>
        <mxCell id="mtzsEB-38qO-FX3NmCci-3" value="audio" style="text;html=1;align=center;verticalAlign=middle;resizable=0;points=[];autosize=1;strokeColor=none;fillColor=none;" vertex="1" parent="1">
          <mxGeometry x="-120" y="520" width="60" height="30" as="geometry" />
        </mxCell>
        <mxCell id="mtzsEB-38qO-FX3NmCci-4" value="checksum" style="text;html=1;align=center;verticalAlign=middle;whiteSpace=wrap;rounded=0;" vertex="1" parent="1">
          <mxGeometry x="-32" y="494" width="60" height="30" as="geometry" />
        </mxCell>
        <mxCell id="mtzsEB-38qO-FX3NmCci-5" value="audio" style="text;html=1;align=center;verticalAlign=middle;resizable=0;points=[];autosize=1;strokeColor=none;fillColor=none;" vertex="1" parent="1">
          <mxGeometry x="10" y="430" width="60" height="30" as="geometry" />
        </mxCell>
      </root>
    </mxGraphModel>
  </diagram>
</mxfile>
